<svg width="18" height="18" viewBox="0 0 18 18" fill="none" xmlns="http://www.w3.org/2000/svg"><rect width="18" height="18" rx="9" fill="#F7F8FA"/><path d="M12.652 12.689c-.019-1.157-.4-2.21-1.079-2.971A3.41 3.41 0 009 8.543c-.985 0-1.9.417-2.573 1.175-.678.76-1.06 1.812-1.08 2.967.384.182 1.97.88 3.653.88 1.82 0 3.297-.694 3.652-.876z" fill="#8490A2"/><path fill-rule="evenodd" clip-rule="evenodd" d="M12.652 12.689c-.019-1.157-.4-2.21-1.079-2.971A3.41 3.41 0 009 8.543c-.985 0-1.9.417-2.573 1.175-.678.76-1.06 1.812-1.08 2.967.384.182 1.97.88 3.653.88 1.82 0 3.297-.694 3.652-.876zm-6.834-.293c.6.254 1.867.713 3.182.713 1.42 0 2.623-.45 3.183-.702-.071-.945-.41-1.778-.95-2.386C10.641 9.358 9.85 9 9 9c-.85 0-1.642.358-2.233 1.021m-.949 2.374c.073-.94.41-1.769.95-2.374l-.95 2.374z" fill="#8490A2"/><path d="M9 8.087a1.826 1.826 0 100-3.652 1.826 1.826 0 000 3.652z" fill="#8490A2"/><path fill-rule="evenodd" clip-rule="evenodd" d="M9 7.63a1.37 1.37 0 100-2.739 1.37 1.37 0 000 2.74zm1.826-1.37a1.826 1.826 0 11-3.652.001 1.826 1.826 0 013.652 0z" fill="#8490A2"/></svg>