<svg width="12" height="13" viewBox="0 0 12 13" fill="none" xmlns="http://www.w3.org/2000/svg"><path d="M6 11.5a5 5 0 100-10 5 5 0 000 10z" fill="#368734"/><path fill-rule="evenodd" clip-rule="evenodd" d="M.625 6.5a5.375 5.375 0 1110.75 0 5.375 5.375 0 01-10.75 0zM6 1.875a4.625 4.625 0 100 9.25 4.625 4.625 0 000-9.25z" fill="#368734"/><path fill-rule="evenodd" clip-rule="evenodd" d="M6 4.125c.207 0 .375.168.375.375v4a.375.375 0 11-.75 0v-4c0-.207.168-.375.375-.375z" fill="#fff"/><path fill-rule="evenodd" clip-rule="evenodd" d="M3.625 6.5c0-.207.168-.375.375-.375h4a.375.375 0 110 .75H4a.375.375 0 01-.375-.375z" fill="#fff"/></svg>