<svg width="20" height="20" viewBox="0 0 20 20" fill="none" xmlns="http://www.w3.org/2000/svg"><path d="M15.25 5H4.75a.593.593 0 00-.583.602v9.63c0 .332.26.601.583.601h10.5c.322 0 .583-.27.583-.601v-9.63A.593.593 0 0015.25 5z" fill="#8490A2" stroke="#8490A2" stroke-width="2" stroke-linecap="round" stroke-linejoin="round"/><path fill-rule="evenodd" clip-rule="evenodd" d="M4.419 5.128a.158.158 0 00-.155.16v10.257c0 .088.07.16.155.16h11.163a.158.158 0 00.155-.16V5.288c0-.088-.07-.16-.155-.16H4.419zm-1.085.16c0-.62.485-1.121 1.085-1.121h11.163c.599 0 1.085.502 1.085 1.121v10.257c0 .62-.486 1.122-1.085 1.122H4.419c-.6 0-1.085-.503-1.085-1.122V5.288z" fill="#8490A2"/><path fill-rule="evenodd" clip-rule="evenodd" d="M3.333 8.75c0-.23.209-.417.466-.417h12.403c.257 0 .465.187.465.417 0 .23-.208.417-.465.417H3.799c-.257 0-.466-.187-.466-.417zm0 4.167c0-.23.209-.417.466-.417h12.403c.257 0 .465.187.465.417 0 .23-.208.416-.465.416H3.799c-.257 0-.466-.186-.466-.416zm4.584-9.584c.23 0 .416.204.416.455v2.424c0 .251-.186.455-.416.455-.23 0-.417-.204-.417-.455V3.788c0-.251.187-.455.417-.455zm4.166 0c.23 0 .417.204.417.455v2.424c0 .251-.187.455-.417.455-.23 0-.417-.204-.417-.455V3.788c0-.251.187-.455.417-.455z" fill="#fff"/><path fill-rule="evenodd" clip-rule="evenodd" d="M7.917 8.333c.23 0 .416.208.416.463v7.408c0 .255-.186.463-.416.463-.23 0-.417-.208-.417-.463V8.796c0-.255.187-.463.417-.463zm4.166 0c.23 0 .417.208.417.463v7.408c0 .255-.187.463-.417.463-.23 0-.417-.208-.417-.463V8.796c0-.255.187-.463.417-.463z" fill="#fff"/></svg>