<svg width="12" height="13" viewBox="0 0 12 13" fill="none" xmlns="http://www.w3.org/2000/svg"><g clip-path="url(#clip0_1193_4479)"><path d="M6 11.871c1.38 0 2.63-.56 3.536-1.464A4.984 4.984 0 0011 6.87c0-1.38-.56-2.63-1.464-3.535A4.984 4.984 0 006 1.87c-1.38 0-2.63.56-3.536 1.465A4.984 4.984 0 001 6.87c0 1.38.56 2.63 1.464 3.536A4.984 4.984 0 006 11.87z" fill="#368734"/><path fill-rule="evenodd" clip-rule="evenodd" d="M2.2 3.07A5.36 5.36 0 016 1.497a5.36 5.36 0 013.8 1.575l-.264.265.265-.265a5.36 5.36 0 011.574 3.8 5.36 5.36 0 01-1.574 3.8A5.36 5.36 0 016 12.247a5.36 5.36 0 01-3.8-1.574l.264-.265-.265.265a5.36 5.36 0 01-1.574-3.8A5.36 5.36 0 012.199 3.07zM6 2.247a4.61 4.61 0 00-3.27 1.355 4.61 4.61 0 00-1.355 3.27 4.61 4.61 0 001.355 3.27A4.61 4.61 0 006 11.497a4.61 4.61 0 003.27-1.354 4.61 4.61 0 001.355-3.27A4.61 4.61 0 009.27 3.6 4.61 4.61 0 006 2.246z" fill="#368734"/><path fill-rule="evenodd" clip-rule="evenodd" d="M8.765 5.106a.375.375 0 010 .53l-3 3a.375.375 0 01-.53 0l-1.5-1.5a.375.375 0 01.53-.53L5.5 7.841l2.735-2.735a.375.375 0 01.53 0z" fill="#fff"/></g><defs><clipPath id="clip0_1193_4479"><path fill="#fff" transform="translate(0 .871)" d="M0 0h12v12H0z"/></clipPath></defs></svg>