<svg width="12" height="13" viewBox="0 0 12 13" fill="none" xmlns="http://www.w3.org/2000/svg"><path d="M6 11.5c1.38 0 2.63-.56 3.536-1.464A4.984 4.984 0 0011 6.5c0-1.38-.56-2.63-1.464-3.536A4.984 4.984 0 006 1.5c-1.38 0-2.63.56-3.536 1.464A4.984 4.984 0 001 6.5c0 1.38.56 2.63 1.464 3.536A4.984 4.984 0 006 11.5z" fill="#368734"/><path fill-rule="evenodd" clip-rule="evenodd" d="M2.2 2.7A5.36 5.36 0 016 1.124a5.36 5.36 0 013.8 1.574l-.264.265L9.8 2.7a5.36 5.36 0 011.575 3.8 5.36 5.36 0 01-1.574 3.8A5.36 5.36 0 016 11.876a5.36 5.36 0 01-3.8-1.574l.264-.265-.265.265A5.36 5.36 0 01.625 6.5a5.36 5.36 0 011.574-3.8zM6 1.874A4.61 4.61 0 002.73 3.23 4.61 4.61 0 001.375 6.5 4.61 4.61 0 002.73 9.77 4.61 4.61 0 006 11.125 4.61 4.61 0 009.27 9.77a4.61 4.61 0 001.355-3.27A4.61 4.61 0 009.27 3.23 4.61 4.61 0 006 1.875z" fill="#368734"/><path fill-rule="evenodd" clip-rule="evenodd" d="M8.765 4.735a.375.375 0 010 .53l-3 3a.375.375 0 01-.53 0l-1.5-1.5a.375.375 0 01.53-.53L5.5 7.47l2.735-2.735a.375.375 0 01.53 0z" fill="#fff"/></svg>