<svg width="16" height="16" viewBox="0 0 16 16" fill="none" xmlns="http://www.w3.org/2000/svg"><path d="M8 14.667A6.667 6.667 0 108 1.334a6.667 6.667 0 000 13.333z" fill="#8490A2"/><path fill-rule="evenodd" clip-rule="evenodd" d="M.833 8a7.167 7.167 0 1114.334 0A7.167 7.167 0 01.833 8zM8 1.833a6.167 6.167 0 100 12.334A6.167 6.167 0 008 1.834z" fill="#8490A2"/><path fill-rule="evenodd" clip-rule="evenodd" d="M10.24 5.76a.5.5 0 010 .708l-3.772 3.771a.5.5 0 11-.707-.707L9.532 5.76a.5.5 0 01.707 0z" fill="#fff"/><path fill-rule="evenodd" clip-rule="evenodd" d="M5.76 5.76a.5.5 0 01.708 0l3.771 3.772a.5.5 0 01-.707.707L5.761 6.468a.5.5 0 010-.707z" fill="#fff"/></svg>