<svg width="12" height="13" viewBox="0 0 12 13" fill="none" xmlns="http://www.w3.org/2000/svg"><path fill-rule="evenodd" clip-rule="evenodd" d="M8.625 6.371c0-.207.168-.375.375-.375h2c.207 0 .375.168.375.375v4a.375.375 0 01-.375.375H9.905l-.64.64a.375.375 0 01-.53 0l-.64-.64H5.5a.375.375 0 01-.375-.375v-2c0-.207.168-.375.375-.375h3.125V6.371zm.75.375v1.625A.375.375 0 019 8.746H5.875v1.25H8.25c.1 0 .195.04.265.11l.485.485.485-.485c.07-.07.166-.11.265-.11h.875v-3.25h-1.25z" fill="#30519F"/><path d="M1 2.371h8v6H4.25l-1 1-1-1H1v-6z" fill="#30519F"/><path fill-rule="evenodd" clip-rule="evenodd" d="M.625 2.371c0-.207.168-.375.375-.375h8c.207 0 .375.168.375.375v6A.375.375 0 019 8.746H4.405l-.89.89a.375.375 0 01-.53 0l-.89-.89H1a.375.375 0 01-.375-.375v-6zm.75.375v5.25h.875c.1 0 .195.04.265.11l.735.735.735-.735c.07-.07.166-.11.265-.11h4.375v-5.25h-7.25z" fill="#30519F"/><path fill-rule="evenodd" clip-rule="evenodd" d="M4.375 5.371c0-.207.168-.375.375-.375H5a.375.375 0 110 .75h-.25a.375.375 0 01-.375-.375zm1.75 0c0-.207.168-.375.375-.375h.25a.375.375 0 110 .75H6.5a.375.375 0 01-.375-.375zm-3.5 0c0-.207.168-.375.375-.375h.25a.375.375 0 110 .75H3a.375.375 0 01-.375-.375z" fill="#fff"/></svg>