<svg width="19" height="19" viewBox="0 0 19 19" fill="none" xmlns="http://www.w3.org/2000/svg"><path fill-rule="evenodd" clip-rule="evenodd" d="M6.25 1.292a.625.625 0 00-.625.625v1.22h-1.25v-1.22C4.375.88 5.215.042 6.25.042h10.833c1.036 0 1.875.84 1.875 1.875V12.75c0 1.036-.84 1.875-1.875 1.875h-1.242v-1.25h1.242c.346 0 .625-.28.625-.625V1.917a.625.625 0 00-.625-.625H6.25z" fill="#8490A2"/><path d="M14.583 3.167H2.917c-.69 0-1.25.56-1.25 1.25v11.666c0 .69.56 1.25 1.25 1.25h11.666c.69 0 1.25-.56 1.25-1.25V4.417c0-.69-.56-1.25-1.25-1.25z" fill="#8490A2" stroke="#8490A2" stroke-width="2" stroke-linejoin="round"/><path fill-rule="evenodd" clip-rule="evenodd" d="M2.917 3.792a.625.625 0 00-.625.625v11.666c0 .346.28.625.625.625h11.666c.345 0 .625-.28.625-.625V4.417a.625.625 0 00-.625-.625H2.917zm-1.875.625c0-1.036.839-1.875 1.875-1.875h11.666c1.036 0 1.875.84 1.875 1.875v11.666c0 1.036-.84 1.875-1.875 1.875H2.917a1.875 1.875 0 01-1.875-1.875V4.417z" fill="#8490A2"/><path fill-rule="evenodd" clip-rule="evenodd" d="M10.334 6.772l-2.2 2.29a.625.625 0 11-.902-.866l2.206-2.295.008-.01c.86-.86 2.25-.824 3.104.03.852.852.89 2.237.037 3.097l-.79.837a.625.625 0 11-.91-.858l.797-.843a.688.688 0 01.012-.013c.35-.35.359-.947-.03-1.336-.386-.387-.982-.38-1.332-.033zm-4.281 3.764a.625.625 0 010 .884 45.978 45.978 0 01-.588.575l-.068.066c-.362.365-.369 1.044.003 1.416.389.389.987.38 1.337.03a.589.589 0 01.021-.02l2.152-1.954a.625.625 0 01.84.926l-2.14 1.943c-.861.848-2.242.809-3.093-.042-.869-.869-.844-2.343 0-3.188l.008-.007.072-.07.173-.168c.137-.133.297-.289.4-.392a.625.625 0 01.884 0z" fill="#fff"/><path fill-rule="evenodd" clip-rule="evenodd" d="M8.188 8.142a.625.625 0 010 .883.903.903 0 00-.26.706m.26-1.59a.625.625 0 00-.884 0h.884zm-.884 0a2.153 2.153 0 00-.623 1.674l.623-1.673zm.624 1.59a.984.984 0 00.29.63.625.625 0 01-.884.885 2.235 2.235 0 01-.653-1.43" fill="#fff"/><path d="M7.304 8.142a2.153 2.153 0 00-.623 1.673l.624-.042.22-.816.221-.815h-.442zm.884.883a.625.625 0 000-.883h-.442l-.22.815-.221.816.623-.042a.903.903 0 01.26-.706z" fill="#fff"/><path fill-rule="evenodd" clip-rule="evenodd" d="M8.859 9.334a.625.625 0 01.884 0c.854.854.89 2.244.03 3.104a.625.625 0 11-.884-.884c.35-.35.358-.948-.03-1.336a.625.625 0 010-.884z" fill="#fff"/></svg>