<svg width="16" height="16" viewBox="0 0 16 16" fill="none" xmlns="http://www.w3.org/2000/svg"><path fill-rule="evenodd" clip-rule="evenodd" d="M14 7.5a.5.5 0 01.5.5v6a.5.5 0 01-.5.5H2a.5.5 0 01-.5-.5V8.003a.5.5 0 111 0V13.5h11V8a.5.5 0 01.5-.5z" fill="#8490A2"/><path fill-rule="evenodd" clip-rule="evenodd" d="M4.646 7.313a.5.5 0 01.708 0L8 9.96l2.646-2.647a.5.5 0 01.708.707l-3 3a.5.5 0 01-.708 0l-3-3a.5.5 0 010-.707z" fill="#8490A2"/><path fill-rule="evenodd" clip-rule="evenodd" d="M7.997 1.5a.5.5 0 01.5.5v8.667a.5.5 0 01-1 0V2a.5.5 0 01.5-.5z" fill="#8490A2"/></svg>