<svg width="12" height="13" viewBox="0 0 12 13" fill="none" xmlns="http://www.w3.org/2000/svg"><path fill-rule="evenodd" clip-rule="evenodd" d="M2.125 4.246a.884.884 0 111.25-1.25l1 1a2.298 2.298 0 003.25 0l1-1a.884.884 0 111.25 1.25l-1 1a2.298 2.298 0 000 3.25l1 1a.884.884 0 11-1.25 1.25l-1-1a2.298 2.298 0 00-3.25 0l-1 1a.884.884 0 11-1.25-1.25l1-1a2.298 2.298 0 000-3.25l-1-1z" fill="#F33D3D"/><path fill-rule="evenodd" clip-rule="evenodd" d="M2.485 2.106a.375.375 0 01.53 0L6 5.091l2.985-2.985a.375.375 0 01.53 0l1.25 1.25a.375.375 0 010 .53L7.78 6.871l2.985 2.985a.375.375 0 010 .53l-1.25 1.25a.375.375 0 01-.53 0L6 8.652l-2.985 2.984a.375.375 0 01-.53 0l-1.25-1.25a.375.375 0 010-.53L4.22 6.871 1.235 3.886a.375.375 0 010-.53l1.25-1.25zM2.03 3.621l2.985 2.985a.375.375 0 010 .53L2.03 10.121l.72.72 2.985-2.985a.375.375 0 01.53 0l2.985 2.985.72-.72-2.985-2.985a.375.375 0 010-.53L9.97 3.621l-.72-.72-2.985 2.985a.375.375 0 01-.53 0L2.75 2.902l-.72.72z" fill="#F33D3D"/></svg>