<svg width="10" height="11" viewBox="0 0 10 11" fill="none" xmlns="http://www.w3.org/2000/svg"><path d="M5 9.25L3.125 6.542h3.75L5 9.25z" fill="#fff"/><path fill-rule="evenodd" clip-rule="evenodd" d="M2.848 6.397a.313.313 0 01.277-.168h3.75a.313.313 0 01.257.49l-1.875 2.71a.313.313 0 01-.514 0L2.868 6.72a.312.312 0 01-.02-.323zm.873.457L5 8.701l1.279-1.847H3.72z" fill="#fff"/><path opacity=".3" d="M5 1.75L3.125 4.458h3.75L5 1.75z" fill="#8490A2"/><path opacity=".3" fill-rule="evenodd" clip-rule="evenodd" d="M5 1.438c.103 0 .199.05.257.134L7.132 4.28a.313.313 0 01-.257.49h-3.75a.313.313 0 01-.257-.49l1.875-2.708A.313.313 0 015 1.437zM3.721 4.146H6.28L5 2.299 3.721 4.146z" fill="#8490A2"/></svg>