<svg width="21" height="21" viewBox="0 0 21 21" fill="none" xmlns="http://www.w3.org/2000/svg"><path fill-rule="evenodd" clip-rule="evenodd" d="M4.588 4.957a.208.208 0 00-.209.208L4.376 18.5c0 .115.093.208.208.208l10.833-.003a.209.209 0 00.209-.208l.003-13.334a.208.208 0 00-.208-.208l-10.833.003zm-1.459.209a1.46 1.46 0 011.46-1.459l10.832-.003c.806 0 1.459.653 1.458 1.458l-.003 13.333a1.46 1.46 0 01-1.46 1.459l-10.832.003a1.457 1.457 0 01-1.458-1.458l.003-13.333z" fill="#fff"/><path fill-rule="evenodd" clip-rule="evenodd" d="M7.505 2.04c.345 0 .625.28.625.624v2.5a.625.625 0 01-1.25 0v-2.5c0-.344.28-.624.625-.624zm5-.002c.345 0 .625.28.625.625v2.5a.625.625 0 01-1.25 0v-2.5c0-.345.28-.625.625-.625zm-6.46 6.877c0-.345.28-.625.625-.625l6.667-.002a.625.625 0 110 1.25L6.67 9.54a.625.625 0 01-.625-.625zm-.001 3.333c0-.345.28-.625.625-.625l5-.001a.625.625 0 110 1.25l-5 .001a.625.625 0 01-.625-.625zm-.001 3.334c0-.346.28-.625.625-.626h3.334a.625.625 0 110 1.25H6.667a.625.625 0 01-.625-.624z" fill="#fff"/></svg>