<svg width="21" height="21" viewBox="0 0 21 21" fill="none" xmlns="http://www.w3.org/2000/svg"><path fill-rule="evenodd" clip-rule="evenodd" d="M2.922 2.414a.625.625 0 00-.626.625l-.004 14.167c0 .345.28.625.625.625l14.167-.004c.345 0 .625-.28.625-.626l.004-14.166a.625.625 0 00-.625-.625l-14.166.004zm-1.876.625c0-1.035.84-1.875 1.876-1.875l14.166-.004c1.036 0 1.875.839 1.875 1.874l-.004 14.167c0 1.036-.84 1.875-1.875 1.876l-14.167.004a1.874 1.874 0 01-1.875-1.875L1.046 3.04z" fill="#fff"/><path fill-rule="evenodd" clip-rule="evenodd" d="M16 11.553a.625.625 0 01-.35.813l-.433.173a.625.625 0 11-.464-1.16l.434-.174a.625.625 0 01.812.348zm-3.04 1.216a.625.625 0 01-.348.813l-.868.347a.625.625 0 11-.464-1.16l.869-.348a.625.625 0 01.812.348zm-3.472 1.39a.625.625 0 01-.348.813l-.868.347a.625.625 0 11-.464-1.16l.868-.348a.625.625 0 01.812.348zm-3.472 1.39a.625.625 0 01-.349.813l-.434.173a.625.625 0 11-.464-1.16l.434-.174a.625.625 0 01.813.348zM3.545 9.705a2.293 2.293 0 012.292-2.292 2.29 2.29 0 012.29 2.291c0 .46-.197 1.002-.482 1.573-.297.593-.731 1.3-1.296 2.116a.625.625 0 01-1.028 0c-.564-.816-.998-1.523-1.294-2.115-.286-.57-.483-1.112-.482-1.573zm2.291-1.042c-.575 0-1.041.467-1.041 1.042 0 .153.08.474.35 1.014.17.34.399.737.69 1.193.292-.457.522-.854.692-1.193.27-.54.35-.861.35-1.014a1.04 1.04 0 00-1.04-1.042zm6.043-2.71a2.293 2.293 0 012.292-2.292 2.29 2.29 0 012.291 2.29c0 .461-.197 1.003-.483 1.574-.296.592-.731 1.3-1.295 2.116a.625.625 0 01-1.029 0c-.563-.816-.998-1.523-1.294-2.115-.285-.57-.482-1.112-.482-1.573zm2.292-1.042c-.575 0-1.042.466-1.042 1.042 0 .153.08.474.35 1.014.17.34.4.736.69 1.192.293-.456.522-.853.692-1.193.27-.54.351-.86.351-1.014a1.04 1.04 0 00-1.041-1.041z" fill="#fff"/></svg>