<svg width="21" height="21" viewBox="0 0 21 21" fill="none" xmlns="http://www.w3.org/2000/svg"><path fill-rule="evenodd" clip-rule="evenodd" d="M14.378 10.163c0-.346.28-.625.625-.626h3.334c.345 0 .624.28.624.624l-.002 6.667c0 .345-.28.625-.625.625H16.51l-1.067 1.068a.625.625 0 01-.884 0l-1.067-1.067-4.324.002a.625.625 0 01-.625-.625v-3.333c0-.346.28-.625.626-.626l5.208-.001.001-2.708zm1.25.624v2.709a.626.626 0 01-.626.625l-5.208.001-.001 2.084 3.958-.002c.166 0 .325.066.442.183l.808.808.808-.808a.625.625 0 01.442-.183h1.459l.001-5.417h-2.083z" fill="#fff"/><path fill-rule="evenodd" clip-rule="evenodd" d="M1.046 3.5c0-.345.28-.625.626-.625l13.333-.004c.345 0 .625.28.625.625l-.003 10c0 .345-.28.625-.625.625l-7.658.002-1.484 1.484a.625.625 0 01-.884 0l-1.483-1.483H1.669a.625.625 0 01-.625-.624l.002-10zm1.25.624l-.002 8.75h1.458c.166 0 .325.066.442.183L5.42 14.28l1.225-1.225a.625.625 0 01.442-.183l7.291-.002.003-8.75-12.084.003z" fill="#fff"/><path fill-rule="evenodd" clip-rule="evenodd" d="M7.295 8.498c0-.345.28-.625.625-.625h.417a.625.625 0 110 1.25H7.92a.625.625 0 01-.625-.625zm2.917-.001c0-.345.28-.625.625-.625h.417a.625.625 0 110 1.25h-.417a.625.625 0 01-.625-.625zm-5.834.002c0-.345.28-.625.626-.625h.416a.625.625 0 110 1.25h-.417a.625.625 0 01-.625-.625z" fill="#fff"/></svg>