<svg width="21" height="21" viewBox="0 0 21 21" fill="none" xmlns="http://www.w3.org/2000/svg"><path fill-rule="evenodd" clip-rule="evenodd" d="M13.73 1.344a.625.625 0 01.884 0l4.165 4.165a.625.625 0 010 .884L6.276 18.897a.625.625 0 01-.884 0L1.226 14.73a.625.625 0 010-.883L13.73 1.344zm.441 1.326L2.553 14.289l3.282 3.282 11.62-11.62L14.17 2.67z" fill="#fff"/><path fill-rule="evenodd" clip-rule="evenodd" d="M13.05 2.907a.625.625 0 010 .884l-9.377 9.377a.625.625 0 11-.884-.883l9.378-9.378a.625.625 0 01.884 0z" fill="#fff"/><path fill-rule="evenodd" clip-rule="evenodd" d="M3.31 11.764a.625.625 0 01.884 0L5.86 13.43a.625.625 0 01-.884.884L3.31 12.647a.625.625 0 010-.883zM5.394 9.68a.625.625 0 01.884 0l2.5 2.499a.625.625 0 01-.885.884l-2.499-2.5a.625.625 0 010-.883zm2.084-2.084a.625.625 0 01.884 0l1.666 1.666a.625.625 0 01-.884.884L7.478 8.48a.625.625 0 010-.884zm2.084-2.084a.625.625 0 01.884 0l2.5 2.499a.625.625 0 01-.885.884l-2.5-2.5a.625.625 0 01.001-.883zm2.084-2.084a.625.625 0 01.884 0l1.666 1.666a.625.625 0 01-.884.884l-1.666-1.666a.625.625 0 010-.884z" fill="#fff"/></svg>