<svg width="21" height="21" viewBox="0 0 21 21" fill="none" xmlns="http://www.w3.org/2000/svg"><path fill-rule="evenodd" clip-rule="evenodd" d="M4.169 12.414c-.576 0-1.042.466-1.042 1.042v2.5a1.04 1.04 0 001.04 1.04l11.667-.002c.576 0 1.042-.467 1.042-1.042v-2.5a1.04 1.04 0 00-1.04-1.042l-11.667.004zm-2.292 1.042a2.293 2.293 0 012.292-2.292l11.667-.004a2.29 2.29 0 012.29 2.291v2.5a2.293 2.293 0 01-2.292 2.293l-11.667.003a2.29 2.29 0 01-2.29-2.291v-2.5zm.003-8.75a2.293 2.293 0 012.292-2.292l4.166-.002a.625.625 0 110 1.25l-4.167.002c-.575 0-1.042.466-1.042 1.042v2.5a1.04 1.04 0 001.04 1.04h4.168a.625.625 0 110 1.25H4.17a2.29 2.29 0 01-2.291-2.29v-2.5zm12.291-1.462a2.71 2.71 0 00-2.709 2.71A2.707 2.707 0 0014.17 8.66a2.71 2.71 0 002.709-2.71 2.707 2.707 0 00-2.708-2.707zm-3.959 2.71a3.961 3.961 0 013.96-3.96 3.956 3.956 0 013.957 3.957 3.961 3.961 0 01-3.96 3.96 3.956 3.956 0 01-3.957-3.957z" fill="#fff"/><path d="M14.17 7.202a1.25 1.25 0 100-2.501 1.25 1.25 0 000 2.501z" fill="#fff"/></svg>