<svg width="21" height="21" viewBox="0 0 21 21" fill="none" xmlns="http://www.w3.org/2000/svg"><path fill-rule="evenodd" clip-rule="evenodd" d="M4.708 13.591a.625.625 0 01-.42.778c-.721.217-1.26.463-1.604.707-.36.255-.391.421-.391.463 0 .042.031.208.391.463.344.244.883.49 1.604.706 1.435.43 3.455.705 5.713.704 2.258 0 4.278-.277 5.713-.707.722-.217 1.26-.463 1.604-.707.36-.255.392-.421.392-.463 0-.042-.032-.208-.392-.463-.344-.244-.882-.49-1.604-.706a.625.625 0 11.36-1.197c.786.236 1.468.529 1.968.883.483.342.918.834.918 1.482 0 .649-.436 1.14-.92 1.484-.499.354-1.18.648-1.967.884-1.581.474-3.728.76-6.073.76-2.344 0-4.49-.283-6.072-.757-.786-.236-1.468-.529-1.967-.883-.483-.342-.918-.834-.918-1.482 0-.649.435-1.14.919-1.484.5-.354 1.181-.648 1.968-.884a.625.625 0 01.778.42z" fill="#fff"/><path d="M10.002 14.704s5.417-3.542 5.418-7.634c.001-2.919-2.423-5.284-5.415-5.283-2.992 0-5.417 2.367-5.418 5.286-.001 4.092 5.415 7.63 5.415 7.63z" fill="#333"/><path fill-rule="evenodd" clip-rule="evenodd" d="M3.962 7.073c0-3.278 2.721-5.91 6.043-5.911 3.322-.001 6.041 2.63 6.04 5.907 0 2.304-1.509 4.367-2.886 5.787a18.944 18.944 0 01-2.796 2.357l-.014.01-.004.002v.001h-.001l-.342-.522-.343.523-.002-.002-.004-.002-.014-.01a17.18 17.18 0 01-.869-.634 18.892 18.892 0 01-1.925-1.721c-1.377-1.42-2.884-3.482-2.883-5.785zm6.04 7.63l-.343.524a.625.625 0 00.684 0l-.341-.523zm0-.762a17.667 17.667 0 002.26-1.955c1.332-1.373 2.533-3.127 2.533-4.916.001-2.559-2.13-4.659-4.79-4.658-2.661 0-4.792 2.102-4.793 4.66 0 1.79 1.2 3.543 2.53 4.916a17.644 17.644 0 002.26 1.953z" fill="#fff"/><path d="M10.003 9.287a2.085 2.085 0 00.001-4.167 2.083 2.083 0 10-.001 4.167z" fill="#fff"/><path fill-rule="evenodd" clip-rule="evenodd" d="M7.295 7.204a2.71 2.71 0 012.71-2.709 2.707 2.707 0 012.707 2.708 2.71 2.71 0 01-2.71 2.709 2.707 2.707 0 01-2.707-2.708zm2.709-1.459a1.46 1.46 0 000 2.917 1.46 1.46 0 000-2.917z" fill="#fff"/></svg>