<svg width="21" height="21" viewBox="0 0 21 21" fill="none" xmlns="http://www.w3.org/2000/svg"><path fill-rule="evenodd" clip-rule="evenodd" d="M12.936 1.245a.625.625 0 01.854.228l1.92 3.329a.625.625 0 01-.541.937l-7.673-.006a.625.625 0 01-.312-1.166l5.752-3.322zm-3.111 3.24l4.261.003L13.02 2.64 9.825 4.485z" fill="#fff"/><path fill-rule="evenodd" clip-rule="evenodd" d="M2.504 5.747a.208.208 0 00-.208.209l-.004 11.666c0 .116.094.209.209.209l15-.005a.208.208 0 00.208-.208l.003-11.667a.208.208 0 00-.208-.208l-15 .004zm-1.458.21a1.46 1.46 0 011.458-1.46l15-.004c.806 0 1.458.653 1.458 1.458l-.003 11.667a1.46 1.46 0 01-1.459 1.459l-15 .004a1.457 1.457 0 01-1.458-1.458l.004-11.667z" fill="#fff"/><path fill-rule="evenodd" clip-rule="evenodd" d="M11.877 11.786c0-1.524 1.29-2.708 2.813-2.709h3.646c.346 0 .625.279.625.624v4.167a.626.626 0 01-.626.625l-3.646.001c-1.524 0-2.812-1.183-2.812-2.708zm2.813-1.459c-.892 0-1.563.682-1.563 1.46 0 .776.67 1.457 1.562 1.457h3.021l.001-2.918-3.02.001z" fill="#fff"/><path fill-rule="evenodd" clip-rule="evenodd" d="M18.337 6.368c.345 0 .625.28.625.625l-.003 10a.625.625 0 01-1.25 0l.003-10c0-.345.28-.625.625-.625z" fill="#fff"/></svg>