<svg width="21" height="21" viewBox="0 0 21 21" fill="none" xmlns="http://www.w3.org/2000/svg"><path fill-rule="evenodd" clip-rule="evenodd" d="M1.046 3.5c0-.345.28-.625.626-.625l16.666-.005c.345 0 .625.28.625.625l-.003 12.5c0 .345-.28.625-.626.625l-8.602.002-4.035 2.019a.625.625 0 01-.905-.559v-1.458H1.669A.625.625 0 011.043 16l.003-12.5zm1.25.624l-.003 11.25h3.125c.345 0 .625.28.625.624v1.072l3.262-1.632a.624.624 0 01.28-.066l8.125-.002.003-11.25-15.417.004z" fill="#fff"/><path fill-rule="evenodd" clip-rule="evenodd" d="M5.837 8.498c.345 0 .625.28.625.625v1.25a.625.625 0 01-1.25 0v-1.25c0-.345.28-.625.625-.625zm4.166-.001c.346 0 .625.28.625.625v1.25a.625.625 0 01-1.25 0v-1.25c0-.345.28-.625.625-.625zm4.167-.001c.345 0 .625.28.625.625v1.25a.625.625 0 01-1.25 0v-1.25c0-.345.28-.625.625-.625z" fill="#fff"/></svg>