<svg width="21" height="21" viewBox="0 0 21 21" fill="none" xmlns="http://www.w3.org/2000/svg"><path fill-rule="evenodd" clip-rule="evenodd" d="M10.957 15.316a.626.626 0 01-.32-.02l-2.5-.832a.625.625 0 11.396-1.186l2.343.78.108-.021.72-.143c.6-.117 1.41-.274 2.245-.43.835-.158 1.7-.315 2.409-.433.679-.114 1.288-.205 1.56-.205.306 0 .628.077.88.298.265.231.37.546.37.848 0 .555-.343 1.123-.808 1.588a16.47 16.47 0 01-2.607 2.065c-1.174.747-2.653 1.453-4.086 1.453-1.356 0-2.477-.34-3.427-.656a95.06 95.06 0 01-.268-.09c-.85-.285-1.498-.502-2.138-.502l-4.166.001v-1.25l4.166-.001c.86 0 1.711.288 2.518.56l.284.096c.925.308 1.887.592 3.031.592 1.068 0 2.297-.545 3.415-1.257a15.234 15.234 0 002.394-1.895c.173-.173.29-.333.36-.464a.924.924 0 00.06-.135c-.168.006-.64.071-1.333.187-.697.116-1.552.272-2.384.428a299.973 299.973 0 00-2.953.57l-.269.054zm7.05-1.23h-.002.002zm-16.34 3.12v-.625a.625.625 0 000 1.25v-.625z" fill="#fff"/><path fill-rule="evenodd" clip-rule="evenodd" d="M3.75 11.394a8.084 8.084 0 00-1.64 1.254.625.625 0 11-.883-.884A9.338 9.338 0 013.13 10.31c.78-.446 1.723-.812 2.706-.813.501 0 1.125.122 1.758.296.643.177 1.337.42 1.994.687.656.268 1.286.565 1.799.854.256.145.49.291.688.436.19.138.377.298.51.476.32.427.293.9.154 1.271-.13.348-.371.653-.589.885a5.864 5.864 0 01-.94.803l-.02.013-.005.004-.002.002h-.001l-.347-.52.346.52a.625.625 0 11-.693-1.04h.002l.011-.008.05-.035a5.255 5.255 0 00.688-.593c.173-.185.284-.349.33-.47a.25.25 0 00.019-.079l-.003-.003a1.317 1.317 0 00-.248-.217 5.805 5.805 0 00-.564-.356 15.121 15.121 0 00-1.658-.785 16.927 16.927 0 00-1.853-.64c-.598-.164-1.094-.25-1.426-.25-.684 0-1.408.26-2.086.647zM7.504 4.08a.208.208 0 00-.208.208V7.62a.625.625 0 01-1.25 0V4.288A1.46 1.46 0 017.505 2.83l10-.002c.805 0 1.458.652 1.458 1.457l-.002 6.667a.625.625 0 01-1.25 0l.002-6.666a.208.208 0 00-.209-.208l-10 .002z" fill="#fff"/><path fill-rule="evenodd" clip-rule="evenodd" d="M9.796 3.454c0-.345.28-.625.625-.625l4.167-.002c.345 0 .625.28.625.625l-.001 3.75c0 .345-.28.625-.625.625l-4.167.002a.625.625 0 01-.625-.625l.001-3.75zm1.25.624v2.5h2.916v-2.5h-2.916z" fill="#fff"/></svg>