<svg width="21" height="21" viewBox="0 0 21 21" fill="none" xmlns="http://www.w3.org/2000/svg"><path fill-rule="evenodd" clip-rule="evenodd" d="M10.005 3.289a2.71 2.71 0 00-2.71 2.709 2.707 2.707 0 002.708 2.708 2.71 2.71 0 002.71-2.71 2.707 2.707 0 00-2.708-2.707zm-3.96 2.71a3.961 3.961 0 013.96-3.96 3.956 3.956 0 013.957 3.957 3.961 3.961 0 01-3.959 3.96 3.956 3.956 0 01-3.957-3.958zm-4.17 13.334a8.13 8.13 0 018.128-8.127 8.12 8.12 0 018.122 8.122.625.625 0 01-1.25 0 6.87 6.87 0 00-6.873-6.872 6.88 6.88 0 00-6.877 6.876.625.625 0 01-1.25 0z" fill="#fff"/></svg>