<svg width="20" height="20" viewBox="0 0 20 20" fill="none" xmlns="http://www.w3.org/2000/svg"><path fill-rule="evenodd" clip-rule="evenodd" d="M4.706 13.47c.1.33-.089.678-.42.777-.72.217-1.259.462-1.603.706-.36.256-.391.421-.391.464 0 .042.03.207.391.463.344.244.882.49 1.604.706 1.435.43 3.455.706 5.713.706s4.278-.276 5.713-.706c.721-.217 1.26-.462 1.604-.706.36-.256.391-.421.391-.463 0-.043-.031-.208-.391-.464-.344-.244-.883-.489-1.604-.705a.625.625 0 11.359-1.198c.787.236 1.469.53 1.968.884.483.342.918.835.918 1.483 0 .648-.435 1.14-.918 1.483-.5.354-1.181.647-1.968.883-1.581.474-3.728.759-6.072.759-2.345 0-4.491-.285-6.072-.759-.787-.236-1.469-.53-1.968-.883-.483-.343-.918-.835-.918-1.483 0-.649.435-1.14.918-1.483.5-.354 1.181-.648 1.968-.884a.625.625 0 01.778.42z" fill="#8490A2"/><path d="M10 14.583s5.417-3.54 5.417-7.632c0-2.919-2.425-5.284-5.417-5.284-2.991 0-5.417 2.365-5.417 5.284 0 4.092 5.417 7.632 5.417 7.632z" fill="#8490A2"/><path fill-rule="evenodd" clip-rule="evenodd" d="M3.958 6.95c0-3.277 2.72-5.908 6.042-5.908 3.322 0 6.042 2.63 6.042 5.909 0 2.303-1.508 4.366-2.885 5.786a18.93 18.93 0 01-2.795 2.356l-.014.01-.004.002-.001.001-.343-.523-.342.523h-.002l-.004-.004-.014-.009a17.229 17.229 0 01-.869-.634 18.925 18.925 0 01-1.926-1.722c-1.377-1.42-2.885-3.483-2.885-5.786zM10 14.584l-.342.524a.625.625 0 00.684 0L10 14.582zm0-.762a17.665 17.665 0 002.26-1.954c1.331-1.373 2.532-3.127 2.532-4.916 0-2.559-2.13-4.66-4.792-4.66-2.66 0-4.792 2.101-4.792 4.66 0 1.789 1.201 3.543 2.533 4.916A17.664 17.664 0 0010 13.82z" fill="#8490A2"/><path d="M10 9.167A2.083 2.083 0 1010 5a2.083 2.083 0 000 4.167z" fill="#fff"/><path fill-rule="evenodd" clip-rule="evenodd" d="M7.292 7.083a2.708 2.708 0 115.416 0 2.708 2.708 0 01-5.417 0zM10 5.625a1.458 1.458 0 100 2.917 1.458 1.458 0 000-2.917z" fill="#fff"/></svg>