<svg width="38" height="36" viewBox="0 0 38 36" fill="none" xmlns="http://www.w3.org/2000/svg"><path d="M23.067.152C13.022 1.432 2.927 10.459.523 20.317c-2.405 9.858 3.78 16.81 13.824 15.53C24.39 34.569 34.486 25.54 36.89 15.684 39.295 5.825 33.11-1.127 23.067.152zM10.495 13.229c-.605 0-.904-.472-.669-1.055.236-.582.918-1.054 1.523-1.054h4.25c.605 0 .905.472.67 1.054-.236.583-.918 1.055-1.523 1.055h-4.25zm5.319 10.835c-.327.807-1.272 1.461-2.114 1.461-.842 0-1.252-.653-.927-1.46.326-.808 1.272-1.462 2.114-1.462.842 0 1.252.654.927 1.461zm6.132-.03c-.334.824-1.298 1.491-2.154 1.491-.855 0-1.28-.668-.946-1.491.334-.823 1.298-1.491 2.154-1.491.857 0 1.28.668.947 1.491h-.001zm3.11-3.194c-.236.582-.918 1.054-1.523 1.054H13.94c-.605 0-.905-.472-.67-1.054.236-.582.918-1.055 1.523-1.055h9.595c.605 0 .905.473.67 1.055h-.003zm1.979-2.889c-.235.582-.918 1.055-1.523 1.055H13.746c-.606 0-.905-.473-.67-1.055.236-.582.918-1.054 1.523-1.054h11.767c.605 0 .905.472.67 1.054h-.001zm1.38-2.888c-.235.582-.918 1.054-1.523 1.054H12.744c-.605 0-.905-.472-.67-1.054.236-.582.918-1.055 1.523-1.055h14.149c.605 0 .904.473.669 1.055z" fill="#fff"/></svg>