<svg width="147" height="36" viewBox="0 0 147 36" fill="none" xmlns="http://www.w3.org/2000/svg"><g clip-path="url(#clip0_1193_9532)"><g clip-path="url(#clip1_1193_9532)" fill="#fff"><path d="M138.375 22.147c0-.747.777-.913 1.618-1.141.519-.125 1.057-.27 1.51-.582v1.35c-.431.684-1.164 1.078-2.135 1.078-.582 0-.993-.29-.993-.705zm-3.34-3.445c.993-.665 2.869-1.163 4.768-1.163 1.101 0 1.704.166 1.704.582 0 .602-.884.727-2.394.979-2.287.395-5.351.934-5.351 3.654 0 2.054 1.316 3.196 3.69 3.196 1.661 0 2.934-.623 4.055-1.807v1.556h4.746v-6.891c0-2.782-2.33-4.546-5.997-4.546-2.071 0-3.84.27-5.221.747v3.693z"/><path d="M120.233 25.697h4.897V20.82l2.912 4.878h5.803l-4.314-6.455 4.335-4.755h-5.242l-3.494 4.755V10.96h-4.897v14.738zm-15.256 0h4.918v-6.604c.391-.913 1.035-1.307 1.963-1.307 1.057 0 1.704.767 1.704 2.033v5.875h4.94v-6.64c0-2.861-1.879-4.774-4.703-4.774-1.683 0-3.085.623-4.077 1.744v-1.537h-4.745v11.21zm-1.939-14.738H98.12v2.076h4.918v-2.076zm0 3.529H98.12v11.208h4.918V14.487zM85.284 25.697H96.61v-3.321h-5.48l5.307-4.65V14.51l-10.721-.021v3.321h4.832l-5.264 4.608v3.28zm-10.161 0h4.918v-6.394c.392-.955 1.144-1.328 2.349-1.328.798 0 1.575.145 2.092.352v-3.964c-.247-.06-.5-.087-.755-.083-1.64 0-2.955.748-3.861 2.034v-1.826h-4.743v11.21zm-10.571-5.604c0-1.599.734-2.491 2.05-2.491 1.316 0 2.049.892 2.049 2.49 0 1.599-.733 2.492-2.05 2.492-1.315 0-2.049-.893-2.049-2.491zm2.05 5.811c4.271 0 7.011-2.26 7.011-5.811 0-3.674-2.61-5.813-7.011-5.813-4.272 0-7.012 2.26-7.012 5.813 0 3.674 2.611 5.811 7.012 5.811z"/><path d="M46.776 25.697h4.897V20.82l2.913 4.878h5.803l-4.314-6.455 4.336-4.755h-5.242l-3.496 4.755V10.96h-4.897v14.738zM23.067.152C13.022 1.432 2.927 10.46.523 20.317c-2.405 9.858 3.78 16.81 13.824 15.53C24.39 34.569 34.486 25.542 36.89 15.684S33.11-1.126 23.066.154zM10.495 13.23c-.605 0-.904-.472-.669-1.054.236-.583.918-1.055 1.523-1.055h4.25c.605 0 .905.472.67 1.055-.236.582-.918 1.054-1.523 1.054h-4.25zm5.319 10.835c-.327.807-1.272 1.462-2.114 1.462-.842 0-1.252-.654-.927-1.462.326-.807 1.272-1.46 2.114-1.46.842 0 1.252.653.927 1.46zm6.132-.03c-.334.824-1.298 1.492-2.154 1.492-.855 0-1.28-.669-.946-1.492.334-.823 1.298-1.491 2.154-1.491.857 0 1.28.668.947 1.491h-.001zm3.11-3.194c-.236.582-.918 1.054-1.523 1.054H13.94c-.605 0-.905-.472-.67-1.054.236-.582.918-1.055 1.523-1.055h9.595c.605 0 .905.473.67 1.055h-.003zm1.979-2.889c-.235.583-.918 1.055-1.523 1.055H13.746c-.606 0-.905-.472-.67-1.055.236-.582.918-1.054 1.523-1.054h11.767c.605 0 .905.472.67 1.054h-.001zm1.38-2.888c-.235.582-.918 1.054-1.523 1.054H12.744c-.605 0-.905-.472-.67-1.054.236-.582.918-1.055 1.523-1.055h14.149c.605 0 .904.473.669 1.055z"/></g></g><defs><clipPath id="clip0_1193_9532"><path fill="#fff" d="M0 0h146.25v36H0z"/></clipPath><clipPath id="clip1_1193_9532"><path fill="#fff" d="M0 0h146.25v36H0z"/></clipPath></defs></svg>