<svg width="16" height="16" viewBox="0 0 16 16" fill="none" xmlns="http://www.w3.org/2000/svg"><path d="M11.667 5.333a1.667 1.667 0 100-3.333 1.667 1.667 0 000 3.333z" fill="#8490A2"/><path fill-rule="evenodd" clip-rule="evenodd" d="M9.5 3.667a2.167 2.167 0 114.333 0 2.167 2.167 0 01-4.333 0zM11.667 2.5a1.167 1.167 0 100 2.333 1.167 1.167 0 000-2.333z" fill="#8490A2"/><path d="M4.333 9.667a1.667 1.667 0 100-3.334 1.667 1.667 0 000 3.334z" fill="#8490A2"/><path fill-rule="evenodd" clip-rule="evenodd" d="M2.167 8A2.167 2.167 0 116.5 8a2.167 2.167 0 01-4.333 0zm2.166-1.167a1.167 1.167 0 100 2.334 1.167 1.167 0 000-2.334z" fill="#8490A2"/><path fill-rule="evenodd" clip-rule="evenodd" d="M10.427 4.266a.5.5 0 01-.168.686L6.039 7.51a.5.5 0 01-.519-.855l4.22-2.557a.5.5 0 01.687.169zM5.349 8.6a.5.5 0 01.685-.176l4.446 2.628a.5.5 0 01-.508.86L5.525 9.286a.5.5 0 01-.176-.685z" fill="#8490A2"/><path d="M11.667 10.667a1.667 1.667 0 110 3.333 1.667 1.667 0 010-3.333z" fill="#8490A2"/><path fill-rule="evenodd" clip-rule="evenodd" d="M11.667 11.167a1.167 1.167 0 100 2.333 1.167 1.167 0 000-2.333zM9.5 12.333a2.167 2.167 0 114.333 0 2.167 2.167 0 01-4.333 0z" fill="#8490A2"/></svg>