<svg width="28" height="28" viewBox="0 0 28 28" fill="none" xmlns="http://www.w3.org/2000/svg"><path d="M22.927 23.018c-.046-2.83-.979-5.401-2.637-7.264-1.648-1.85-3.882-2.87-6.29-2.87-2.409 0-4.642 1.02-6.29 2.87-1.657 1.86-2.589 4.43-2.638 7.255.937.443 4.813 2.15 8.928 2.15 4.45 0 8.059-1.697 8.927-2.141z" fill="#8490A2"/><path fill-rule="evenodd" clip-rule="evenodd" d="M22.927 23.018c-.046-2.83-.979-5.401-2.637-7.264-1.648-1.85-3.882-2.87-6.29-2.87-2.409 0-4.642 1.02-6.29 2.87-1.657 1.86-2.589 4.43-2.638 7.255.937.443 4.813 2.15 8.928 2.15 4.45 0 8.059-1.697 8.927-2.141zM6.223 22.3c1.466.622 4.564 1.744 7.778 1.744 3.47 0 6.412-1.102 7.78-1.715-.173-2.31-1-4.347-2.323-5.833C18.013 14.876 16.079 14 14 14c-2.08 0-4.014.875-5.457 2.496M6.223 22.3c.177-2.298 1.003-4.324 2.32-5.803L6.223 22.3z" fill="#8490A2"/><path d="M14 11.768a4.464 4.464 0 100-8.927 4.464 4.464 0 000 8.927z" fill="#8490A2"/><path fill-rule="evenodd" clip-rule="evenodd" d="M14 10.652a3.348 3.348 0 100-6.696 3.348 3.348 0 000 6.696zm4.464-3.348a4.464 4.464 0 11-8.928 0 4.464 4.464 0 018.928 0z" fill="#8490A2"/></svg>