<svg width="17" height="17" viewBox="0 0 17 17" fill="none" xmlns="http://www.w3.org/2000/svg"><g clip-path="url(#clip0_498_13732)"><path d="M8.5 15.664a6.667 6.667 0 100-13.334 6.667 6.667 0 000 13.334z" fill="#8490A2"/><path fill-rule="evenodd" clip-rule="evenodd" d="M1.333 8.997a7.167 7.167 0 1114.334 0 7.167 7.167 0 01-14.334 0zM8.5 2.83a6.167 6.167 0 100 12.334 6.167 6.167 0 000-12.334z" fill="#8490A2"/><path fill-rule="evenodd" clip-rule="evenodd" d="M10.74 6.758a.5.5 0 010 .707l-3.772 3.771a.5.5 0 11-.707-.707l3.771-3.771a.5.5 0 01.707 0z" fill="#fff"/><path fill-rule="evenodd" clip-rule="evenodd" d="M6.26 6.758a.5.5 0 01.708 0l3.771 3.771a.5.5 0 01-.707.707L6.261 7.465a.5.5 0 010-.707z" fill="#fff"/></g><defs><clipPath id="clip0_498_13732"><path fill="#fff" transform="translate(.5 .997)" d="M0 0h16v16H0z"/></clipPath></defs></svg>