<svg width="16" height="16" viewBox="0 0 16 16" fill="none" xmlns="http://www.w3.org/2000/svg"><path fill-rule="evenodd" clip-rule="evenodd" d="M.833 7a6.167 6.167 0 1112.334 0A6.167 6.167 0 01.833 7zM7 1.833a5.167 5.167 0 100 10.334A5.167 5.167 0 007 1.833z" fill="#8490A2"/><path fill-rule="evenodd" clip-rule="evenodd" d="M7 4.5a.5.5 0 01.5.5v4a.5.5 0 01-1 0V5a.5.5 0 01.5-.5z" fill="#8490A2"/><path fill-rule="evenodd" clip-rule="evenodd" d="M4.5 7a.5.5 0 01.5-.5h4a.5.5 0 010 1H5a.5.5 0 01-.5-.5zm6.22 3.72a.5.5 0 01.707 0l2.829 2.829a.5.5 0 11-.707.707l-2.829-2.829a.5.5 0 010-.707z" fill="#8490A2"/></svg>